<svg width="324" height="324" viewBox="0 0 324 324" fill="none" xmlns="http://www.w3.org/2000/svg">
<path d="M174.656 99.25H202.5M162 160V173.436C162 175.916 161.018 178.291 159.261 180.042C158.395 180.911 157.365 181.601 156.231 182.071C155.097 182.541 153.882 182.782 152.655 182.781H139.219" stroke="#E0E0E0" stroke-width="4" stroke-miterlimit="2" stroke-linecap="round" stroke-linejoin="round"/>
<path d="M86.0625 222.016C98.6442 222.016 108.844 211.816 108.844 199.234C108.844 186.653 98.6442 176.453 86.0625 176.453C73.4808 176.453 63.2812 186.653 63.2812 199.234C63.2812 211.816 73.4808 222.016 86.0625 222.016Z" stroke="#E0E0E0" stroke-width="4" stroke-miterlimit="2" stroke-linecap="round" stroke-linejoin="round"/>
<path d="M63.2812 200.5H53.7587C50.2423 200.5 46.8699 199.103 44.3834 196.617C41.8969 194.13 40.5 190.758 40.5 187.241V148.25C40.5 145.997 41.0721 143.78 42.1706 141.81L62.0257 106.069C63.1744 104.003 64.8543 102.281 66.8917 101.082C68.9291 99.8835 71.2498 99.2509 73.6138 99.25H182.25M182.25 119.5V187.241C182.246 190.586 180.983 193.807 178.711 196.263C177.262 197.818 175.462 199.006 173.461 199.725C172.025 200.233 170.514 200.495 168.991 200.5H124.031" stroke="#E0E0E0" stroke-width="4" stroke-miterlimit="2" stroke-linecap="round" stroke-linejoin="round"/>
<path d="M237.938 222.016C250.519 222.016 260.719 211.816 260.719 199.234C260.719 186.653 250.519 176.453 237.938 176.453C225.356 176.453 215.156 186.653 215.156 199.234C215.156 211.816 225.356 222.016 237.938 222.016Z" stroke="#E0E0E0" stroke-width="4" stroke-miterlimit="2" stroke-linecap="round" stroke-linejoin="round"/>
<path d="M215.156 200.485C211.747 200.331 208.529 198.868 206.172 196.402C203.814 193.935 202.499 190.654 202.5 187.241V127.696C202.499 125.955 202.842 124.23 203.508 122.622C204.174 121.013 205.151 119.551 206.382 118.319C207.613 117.088 209.075 116.111 210.684 115.445C212.293 114.779 214.017 114.437 215.759 114.438H255.059C260.076 114.438 264.667 117.273 266.915 121.768L280.614 149.161C280.919 149.77 281.063 150.446 281.033 151.126C281.003 151.805 280.799 152.466 280.441 153.045C280.084 153.624 279.584 154.102 278.99 154.433C278.395 154.764 277.726 154.938 277.045 154.938H248.432C245.376 154.937 242.397 153.975 239.917 152.188C237.438 150.401 235.583 147.879 234.617 144.98L231.189 134.688M283.5 170.125V187.241C283.5 190.335 282.442 193.185 280.665 195.438" stroke="#E0E0E0" stroke-width="4" stroke-miterlimit="2" stroke-linecap="round" stroke-linejoin="round"/>
</svg>
