<svg width="112" height="112" viewBox="0 0 112 112" fill="none" xmlns="http://www.w3.org/2000/svg">
<path fill-rule="evenodd" clip-rule="evenodd" d="M55.7037 95.2001C55.2967 95.1987 54.902 95.0584 54.5833 94.8019C54.2646 94.5455 54.0404 94.1877 53.9469 93.7863C53.7228 92.8047 54.3229 91.8232 55.2916 91.5961L92.2997 82.8645V57.124C92.2997 56.1131 93.1094 55.3 94.0998 55.3C95.0903 55.3 95.9 56.1205 95.9 57.124V84.3149C95.9002 84.7277 95.7624 85.1284 95.509 85.4517C95.2556 85.775 94.9016 86.0017 94.5047 86.0949L56.101 95.1561C55.9705 95.1851 55.8373 95.1998 55.7037 95.2001Z" fill="#E0E0E0"/>
<path fill-rule="evenodd" clip-rule="evenodd" d="M56.2895 95.1999C56.1507 95.1999 56.012 95.1853 55.8733 95.1488L17.5017 86.1037C16.6767 85.9136 16.1 85.175 16.1 84.3268V57.3451C16.1 56.336 16.9177 55.5244 17.9178 55.5244C18.918 55.5244 19.7357 56.3433 19.7357 57.3451V82.8863L54.4643 91.0686V30.4877C54.473 30.0105 54.6684 29.5559 55.0084 29.2216C55.3483 28.8873 55.8057 28.7 56.2822 28.7C56.7586 28.7 57.216 28.8873 57.556 29.2216C57.8959 29.5559 58.0913 30.0105 58.1 30.4877V93.3789C58.1 93.9346 57.8445 94.4611 57.4064 94.8048C57.0906 95.0613 56.6961 95.2009 56.2895 95.1999Z" fill="#E0E0E0"/>
<path fill-rule="evenodd" clip-rule="evenodd" d="M7.44118 60.2C6.84944 60.2 6.29468 59.9179 5.94704 59.4281C5.76195 59.1715 5.64627 58.8712 5.61127 58.5564C5.57627 58.2416 5.62314 57.9231 5.74732 57.632L15.2595 34.9208C15.511 34.3122 16.0732 33.8891 16.7241 33.8001L56.0157 28.716C56.3422 28.6725 56.6743 28.7177 56.9775 28.847C57.2807 28.9762 57.5437 29.1848 57.7391 29.4508C57.9351 29.7153 58.0564 30.0279 58.0903 30.3558C58.1241 30.6836 58.0692 31.0145 57.9314 31.3137L46.5182 56.3922C46.3812 56.6948 46.1652 56.9546 45.8931 57.144C45.6209 57.3335 45.3028 57.4456 44.9723 57.4684L7.58203 60.1922C7.52994 60.1999 7.48556 60.2 7.44118 60.2ZM18.2478 37.3406L10.3111 56.2886L43.6187 53.869L53.1975 32.8204L18.2478 37.3406Z" fill="#E0E0E0"/>
<path fill-rule="evenodd" clip-rule="evenodd" d="M104.561 60.2C104.517 60.2 104.473 60.1999 104.428 60.1925L67.0286 57.4754C66.6985 57.4511 66.381 57.3385 66.1091 57.1491C65.8372 56.9598 65.6208 56.7007 65.4826 56.399L54.0689 31.3144C53.9309 31.0152 53.8759 30.6841 53.9097 30.3561C53.9436 30.0282 54.065 29.7155 54.2612 29.451C54.4567 29.1849 54.7197 28.9763 55.0229 28.847C55.326 28.7177 55.6582 28.6725 55.9847 28.716L95.278 33.8013C95.929 33.883 96.4837 34.3136 96.7426 34.9223L106.255 57.6391C106.378 57.9307 106.424 58.2489 106.389 58.5634C106.354 58.8779 106.239 59.1782 106.056 59.4356C105.884 59.6721 105.659 59.8646 105.4 59.9974C105.14 60.1303 104.853 60.1997 104.561 60.2ZM68.3826 53.8678L101.692 56.2879L93.7545 37.335L58.8033 32.814L68.3826 53.8678Z" fill="#E0E0E0"/>
</svg>
