<svg width="112" height="112" viewBox="0 0 112 112" fill="none" xmlns="http://www.w3.org/2000/svg">
<path d="M39.2586 30.0222L36.442 27.9318L55.4374 2.33191L57.4394 4.35228H59.6942L60.5526 7.81641L65.0099 22.3213L61.6569 23.352L57.1602 8.70716L56.9502 7.86016H55.9764L55.8197 7.70266L39.2586 30.0222Z" fill="#E0E0E0"/>
<path d="M103.202 101.518H91.9949V98.0113H100.057L108.087 24.8167H56.854C57.3458 29.0386 57.9618 33.6262 58.5585 38.0834C59.2541 43.2661 59.9725 48.6263 60.4975 53.4108L57.0106 53.7932C56.4909 49.0507 55.7751 43.7123 55.083 38.5498C54.3891 33.3786 53.6725 28.0306 53.1475 23.2548L52.9349 21.3097H112L103.202 101.518Z" fill="#E0E0E0"/>
<path d="M56.168 29.4017H93.3424V32.9096H56.168V29.4017ZM93.0186 63.8102L90.3822 61.495C92.205 59.417 93.2087 56.7464 93.2059 53.9822C93.2059 47.7426 88.1921 42.6667 82.0295 42.6667C75.8677 42.6667 70.854 47.7426 70.854 53.9822H67.347C67.347 45.8089 73.9331 39.1597 82.0295 39.1597C90.1267 39.1597 96.7137 45.8097 96.7137 53.9822C96.7158 57.5982 95.4024 61.0913 93.0186 63.8102ZM47.2509 109.669C34.7165 109.669 22.1856 107.864 11.9621 104.258C7.54075 102.66 4.05738 99.211 4.01625 96.4014V94.0826C4.00313 93.2277 4.36975 91.5652 6.97463 90.3227L8.48575 93.4876C7.82688 93.8017 7.59063 94.0634 7.52413 94.1544V96.376C7.53463 97.1022 9.5165 99.6432 13.1425 100.954C32.585 107.814 61.9272 107.812 81.3829 100.951C84.994 99.6432 86.9785 97.0987 86.989 96.348V94.1517C86.8805 94.003 86.4579 93.6232 85.4682 93.2514L86.7046 89.9684C90.0375 91.2249 90.5109 93.1009 90.4969 94.1071V96.3751C90.4531 99.2101 86.968 102.658 82.5632 104.252C72.3292 107.862 59.7879 109.669 47.2509 109.669ZM7.67813 77.2152C5.97188 76.5039 3.99 74.9647 4.01625 72.9619V70.6904C4.05825 67.8606 7.5425 64.4114 11.949 62.8154C32.4152 55.5966 62.1005 55.5966 82.5484 62.8101C86.968 64.4079 90.4531 67.8554 90.496 70.6632V72.9855C90.5117 74.0127 89.999 75.964 86.3905 77.2135L85.2442 73.8981C86.3905 73.5017 86.87 73.0791 86.9881 72.9172V70.6904C86.9767 69.9659 84.994 67.4231 81.3689 66.1141C61.929 59.2559 32.5859 59.2576 13.1303 66.1176C9.51825 67.4266 7.53463 69.9676 7.52413 70.7166V72.8936C7.63963 73.0922 8.1165 73.5997 9.02738 73.9786L7.67813 77.2152Z" fill="#E0E0E0"/>
<path d="M84.0096 93.4097H9.6425C4.32513 93.4097 0 89.047 0 83.6841C0 78.323 4.32513 73.9602 9.6425 73.9602H84.0096C89.3261 73.9602 93.6512 78.323 93.6512 83.6841C93.6504 89.047 89.3261 93.4097 84.0096 93.4097ZM9.6425 77.4681C6.26062 77.4681 3.50787 80.2576 3.50787 83.6841C3.50787 87.1123 6.26062 89.9027 9.6425 89.9027H84.0096C87.3915 89.9027 90.1442 87.1123 90.1442 83.6841C90.1442 80.2576 87.3915 77.4681 84.0096 77.4681H9.6425Z" fill="#E0E0E0"/>
<path d="M84.0096 86.1621C81.5483 86.1621 80.255 85.6371 79.1123 85.1725C78.106 84.7639 77.3098 84.441 75.5335 84.441C73.7599 84.441 72.9645 84.7639 71.9583 85.1725C70.8164 85.6371 69.5223 86.1621 67.0591 86.1621C64.5978 86.1621 63.3045 85.6371 62.1626 85.1725C61.1581 84.7639 60.3636 84.441 58.59 84.441C56.8164 84.441 56.021 84.7639 55.0156 85.1725C53.8738 85.6371 52.5796 86.1621 50.1183 86.1621C47.6578 86.1621 46.3654 85.6371 45.2235 85.1725C44.2181 84.7639 43.4236 84.441 41.65 84.441C39.8764 84.441 39.0819 84.7639 38.0783 85.1725C36.9364 85.6371 35.644 86.1621 33.1844 86.1621C30.7248 86.1621 29.4315 85.6371 28.2905 85.1725C27.2851 84.7639 26.4906 84.441 24.717 84.441C22.9443 84.441 22.1498 84.7639 21.1444 85.1725C20.0025 85.6371 18.7101 86.1621 16.2488 86.1621C13.7891 86.1621 12.4959 85.6371 11.3549 85.1725C10.3495 84.7639 9.555 84.441 7.7805 84.441V80.9323C10.241 80.9323 11.5351 81.459 12.6761 81.9236C13.6806 82.3322 14.4751 82.6551 16.2488 82.6551C18.0233 82.6551 18.8178 82.3322 19.8231 81.9236C20.9641 81.459 22.2574 80.9323 24.717 80.9323C27.1775 80.9323 28.4708 81.459 29.6118 81.9236C30.6163 82.3322 31.4108 82.6551 33.1844 82.6551C34.9571 82.6551 35.7516 82.3322 36.7561 81.9236C37.8971 81.459 39.1895 80.9323 41.65 80.9323C44.1105 80.9323 45.4029 81.459 46.5448 81.9236C47.5501 82.3322 48.3446 82.6551 50.1183 82.6551C51.8936 82.6551 52.689 82.3322 53.6944 81.9236C54.8363 81.459 56.1295 80.9323 58.59 80.9323C61.0496 80.9323 62.3438 81.459 63.4839 81.9236C64.4901 82.3322 65.2846 82.6551 67.0591 82.6551C68.8363 82.6551 69.6308 82.3322 70.6379 81.9236C71.7798 81.459 73.073 80.9323 75.5335 80.9323C77.9949 80.9323 79.2899 81.459 80.4326 81.9236C81.438 82.3322 82.2334 82.6551 84.0096 82.6551V86.1621Z" fill="#E0E0E0"/>
</svg>
