<svg width="64" height="64" viewBox="0 0 64 64" fill="none" xmlns="http://www.w3.org/2000/svg">
<path d="M51 20H47V15C46.9911 14.7366 46.887 14.4855 46.707 14.293L38.707 6.293C38.5135 6.11468 38.2629 6.01085 38 6H18C17.7348 6 17.4804 6.10536 17.2929 6.29289C17.1054 6.48043 17 6.73478 17 7V18H12C11.2044 18 10.4413 18.3161 9.87868 18.8787C9.31607 19.4413 9 20.2044 9 21V47C9.00159 48.3256 9.52888 49.5964 10.4662 50.5338C11.4036 51.4711 12.6744 51.9984 14 52H24C24.2652 52 24.5196 51.8946 24.7071 51.7071C24.8946 51.5196 25 51.2652 25 51C25 50.7348 24.8946 50.4804 24.7071 50.2929C24.5196 50.1054 24.2652 50 24 50H14C13.2044 50 12.4413 49.6839 11.8787 49.1213C11.3161 48.5587 11 47.7957 11 47V21C11 20.7348 11.1054 20.4804 11.2929 20.2929C11.4804 20.1054 11.7348 20 12 20H22.89C23.0599 20.0019 23.2267 20.0459 23.3754 20.1281C23.524 20.2103 23.65 20.3281 23.742 20.471L28.152 27.53C28.2419 27.6738 28.3669 27.7924 28.5152 27.8746C28.6636 27.9569 28.8304 28 29 28H50C50.2652 28 50.5196 27.8946 50.7071 27.7071C50.8946 27.5196 51 27.2652 51 27C51 26.7348 50.8946 26.4804 50.7071 26.2929C50.5196 26.1054 50.2652 26 50 26H47V22H51C51.5304 22 52.0391 22.2107 52.4142 22.5858C52.7893 22.9609 53 23.4696 53 24V47C53 47.7957 52.6839 48.5587 52.1213 49.1213C51.5587 49.6839 50.7957 50 50 50H40C39.7348 50 39.4804 50.1054 39.2929 50.2929C39.1054 50.4804 39 50.7348 39 51C39 51.2652 39.1054 51.5196 39.2929 51.7071C39.4804 51.8946 39.7348 52 40 52H50C51.3256 51.9984 52.5964 51.4711 53.5338 50.5338C54.4711 49.5964 54.9984 48.3256 55 47V24C55 22.9391 54.5786 21.9217 53.8284 21.1716C53.0783 20.4214 52.0609 20 51 20ZM43.586 14H39V9.414L43.586 14ZM29.554 26L25.433 19.4C25.377 19.314 25.302 19.247 25.24 19.168C24.9632 18.8071 24.6076 18.5142 24.2003 18.3118C23.793 18.1094 23.3448 18.0027 22.89 18H19V8H37V15C37 15.2652 37.1054 15.5196 37.2929 15.7071C37.4804 15.8946 37.7348 16 38 16H45V26H29.554Z" fill="white"/>
<path d="M22 12H33C33.2652 12 33.5196 11.8946 33.7071 11.7071C33.8946 11.5196 34 11.2652 34 11C34 10.7348 33.8946 10.4804 33.7071 10.2929C33.5196 10.1054 33.2652 10 33 10H22C21.7348 10 21.4804 10.1054 21.2929 10.2929C21.1054 10.4804 21 10.7348 21 11C21 11.2652 21.1054 11.5196 21.2929 11.7071C21.4804 11.8946 21.7348 12 22 12ZM34 15C34 14.7348 33.8946 14.4804 33.7071 14.2929C33.5196 14.1054 33.2652 14 33 14H22C21.7348 14 21.4804 14.1054 21.2929 14.2929C21.1054 14.4804 21 14.7348 21 15C21 15.2652 21.1054 15.5196 21.2929 15.7071C21.4804 15.8946 21.7348 16 22 16H33C33.2652 16 33.5196 15.8946 33.7071 15.7071C33.8946 15.5196 34 15.2652 34 15ZM41 18H29C28.7348 18 28.4804 18.1054 28.2929 18.2929C28.1054 18.4804 28 18.7348 28 19C28 19.2652 28.1054 19.5196 28.2929 19.7071C28.4804 19.8946 28.7348 20 29 20H41C41.2652 20 41.5196 19.8946 41.7071 19.7071C41.8946 19.5196 42 19.2652 42 19C42 18.7348 41.8946 18.4804 41.7071 18.2929C41.5196 18.1054 41.2652 18 41 18ZM41 22H31C30.7348 22 30.4804 22.1054 30.2929 22.2929C30.1054 22.4804 30 22.7348 30 23C30 23.2652 30.1054 23.5196 30.2929 23.7071C30.4804 23.8946 30.7348 24 31 24H41C41.2652 24 41.5196 23.8946 41.7071 23.7071C41.8946 23.5196 42 23.2652 42 23C42 22.7348 41.8946 22.4804 41.7071 22.2929C41.5196 22.1054 41.2652 22 41 22ZM42.924 43.383C42.9997 43.2002 43.0195 42.9991 42.9809 42.8051C42.9422 42.6111 42.8469 42.4328 42.707 42.293L32.707 32.293C32.5195 32.1055 32.2652 32.0002 32 32.0002C31.7348 32.0002 31.4805 32.1055 31.293 32.293L21.293 42.293C21.1532 42.4328 21.058 42.611 21.0194 42.805C20.9808 42.9989 21.0007 43.2 21.0763 43.3827C21.152 43.5654 21.2801 43.7215 21.4445 43.8314C21.609 43.9413 21.8022 44 22 44H27V56C27 56.2652 27.1054 56.5196 27.2929 56.7071C27.4804 56.8946 27.7348 57 28 57C28.2652 57 28.5196 56.8946 28.7071 56.7071C28.8946 56.5196 29 56.2652 29 56V43C29 42.7348 28.8946 42.4804 28.7071 42.2929C28.5196 42.1054 28.2652 42 28 42H24.414L32 34.414L39.586 42H36C35.7348 42 35.4804 42.1054 35.2929 42.2929C35.1054 42.4804 35 42.7348 35 43V56C35 56.2652 35.1054 56.5196 35.2929 56.7071C35.4804 56.8946 35.7348 57 36 57C36.2652 57 36.5196 56.8946 36.7071 56.7071C36.8946 56.5196 37 56.2652 37 56V44H42C42.1978 44 42.3911 43.9415 42.5556 43.8316C42.72 43.7218 42.8483 43.5657 42.924 43.383Z" fill="white"/>
</svg>
