<svg width="917" height="609" viewBox="0 0 917 609" fill="none" xmlns="http://www.w3.org/2000/svg">
<path d="M284.5 226H791C802.046 226 811 234.954 811 246V397.5C811 408.546 819.954 417.5 831 417.5H862.5C873.546 417.5 882.5 426.454 882.5 437.5V496.25C882.5 505.639 890.111 513.25 899.5 513.25C908.889 513.25 916.5 520.861 916.5 530.25V589C916.5 600.046 907.546 609 896.5 609H206.5C195.454 609 186.5 600.046 186.5 589V460C186.5 448.954 195.454 440 206.5 440H209C220.046 440 229 431.046 229 420V346.25C229 336.447 236.947 328.5 246.75 328.5C256.553 328.5 264.5 320.553 264.5 310.75V246C264.5 234.954 273.454 226 284.5 226Z" fill="#E0E0E0"/>
<path d="M424.656 99.25H452.5M412 160V173.436C412 175.916 411.018 178.291 409.261 180.042C408.395 180.911 407.365 181.601 406.231 182.071C405.097 182.541 403.882 182.782 402.655 182.781H389.219" stroke="#E0E0E0" stroke-width="4" stroke-miterlimit="2" stroke-linecap="round" stroke-linejoin="round"/>
<path d="M274.698 129.573L295.463 109.681L306.006 101.352C307.952 99.8147 310.424 99.1137 312.888 99.4065C314.107 99.5479 315.286 99.9287 316.358 100.527" stroke="#E0E0E0" stroke-width="4" stroke-miterlimit="2" stroke-linecap="round" stroke-linejoin="round"/>
<path d="M336.062 222.016C348.644 222.016 358.844 211.816 358.844 199.234C358.844 186.653 348.644 176.453 336.062 176.453C323.481 176.453 313.281 186.653 313.281 199.234C313.281 211.816 323.481 222.016 336.062 222.016Z" stroke="#E0E0E0" stroke-width="4" stroke-miterlimit="2" stroke-linecap="round" stroke-linejoin="round"/>
<path d="M313.281 200.5H303.759C300.242 200.5 296.87 199.103 294.383 196.617C291.897 194.13 290.5 190.758 290.5 187.241V148.25C290.5 145.997 291.072 143.78 292.171 141.81L312.026 106.069C313.174 104.003 314.854 102.281 316.892 101.082C318.929 99.8835 321.25 99.2509 323.614 99.25H432.25M432.25 119.5V187.241C432.246 190.586 430.983 193.807 428.711 196.263C427.262 197.818 425.462 199.006 423.461 199.725C422.025 200.233 420.514 200.495 418.991 200.5H374.031" stroke="#E0E0E0" stroke-width="4" stroke-miterlimit="2" stroke-linecap="round" stroke-linejoin="round"/>
<path d="M487.938 222.016C500.519 222.016 510.719 211.816 510.719 199.234C510.719 186.653 500.519 176.453 487.938 176.453C475.356 176.453 465.156 186.653 465.156 199.234C465.156 211.816 475.356 222.016 487.938 222.016Z" stroke="#E0E0E0" stroke-width="4" stroke-miterlimit="2" stroke-linecap="round" stroke-linejoin="round"/>
<path d="M465.156 200.485C461.747 200.331 458.529 198.868 456.172 196.402C453.814 193.935 452.499 190.654 452.5 187.241V127.696C452.499 125.955 452.842 124.23 453.508 122.622C454.174 121.013 455.151 119.551 456.382 118.319C457.613 117.088 459.075 116.111 460.684 115.445C462.293 114.779 464.017 114.437 465.759 114.438H505.059C510.076 114.438 514.667 117.273 516.915 121.768L530.614 149.161C530.919 149.77 531.063 150.446 531.033 151.126C531.003 151.805 530.799 152.466 530.441 153.045C530.084 153.624 529.584 154.102 528.99 154.433C528.395 154.764 527.726 154.938 527.045 154.938H498.432C495.376 154.937 492.397 153.975 489.917 152.188C487.438 150.401 485.583 147.879 484.617 144.98L481.189 134.688M533.5 170.125V187.241C533.5 190.335 532.442 193.185 530.665 195.438" stroke="#E0E0E0" stroke-width="4" stroke-miterlimit="2" stroke-linecap="round" stroke-linejoin="round"/>
<circle cx="247" cy="269" r="2" fill="#E0E0E0"/>
<circle cx="153" cy="559" r="12" fill="#E0E0E0"/>
<circle cx="22.5" cy="608.5" r="22.5" fill="#E0E0E0"/>
<circle cx="154" cy="439" r="8" fill="#E0E0E0"/>
<circle cx="110" cy="531" r="8" fill="#E0E0E0"/>
<circle cx="174" cy="344" r="4" fill="#E0E0E0"/>
<circle cx="206" cy="405" r="8" fill="#E0E0E0"/>
<circle cx="201" cy="379" r="2" fill="#E0E0E0"/>
<circle cx="233" cy="288" r="4" fill="#E0E0E0"/>
<path d="M206.83 308.174L204.179 300.224L206.076 299.591L208.727 307.542C209.093 307.513 209.453 307.541 209.805 307.612L206.946 299.037C206.858 298.776 206.496 298.397 206.234 298.484L203.388 299.433C203.126 299.52 203.064 300.041 203.151 300.303L206.01 308.877C206.25 308.606 206.526 308.369 206.83 308.174Z" fill="#E0E0E0"/>
<path d="M216.119 324.44L211.06 326.127C210.599 326.28 210.096 326.244 209.661 326.027C209.226 325.81 208.896 325.429 208.741 324.968L204.722 312.913C203.944 310.581 205.208 308.05 207.542 307.272C209.951 306.468 212.481 307.733 213.26 310.066L217.279 322.121C217.432 322.582 217.396 323.086 217.179 323.52C216.961 323.955 216.58 324.286 216.119 324.44ZM207.933 308.195C206.047 308.824 205.066 310.787 205.669 312.597L209.689 324.652C209.834 325.087 210.307 325.324 210.743 325.179L215.802 323.492C216.011 323.422 216.184 323.271 216.283 323.074C216.382 322.876 216.398 322.647 216.329 322.438L212.309 310.383C212.018 309.513 211.394 308.794 210.574 308.384C209.753 307.974 208.804 307.906 207.933 308.195ZM203.546 301.488L206.392 300.54L206.709 301.488L203.863 302.437L203.546 301.488Z" fill="#E0E0E0"/>
<path d="M210.98 322.201L208.608 322.991C208.482 323.033 208.345 323.024 208.227 322.964C208.108 322.905 208.018 322.801 207.976 322.675C207.934 322.549 207.944 322.412 208.003 322.294C208.062 322.175 208.166 322.085 208.292 322.043L210.189 321.41L207.975 314.77L206.078 315.402C205.952 315.444 205.815 315.434 205.696 315.375C205.577 315.316 205.487 315.212 205.445 315.086C205.403 314.96 205.413 314.823 205.472 314.704C205.532 314.586 205.636 314.496 205.761 314.454L208.133 313.663C208.395 313.575 208.757 313.954 208.845 314.216L211.375 321.805C211.462 322.067 211.242 322.113 210.98 322.201Z" fill="#E0E0E0"/>
<g clip-path="url(#clip0_72_2)">
<path fill-rule="evenodd" clip-rule="evenodd" d="M163.415 391.343C163.655 391.122 163.798 390.814 163.811 390.487C163.825 390.161 163.708 389.842 163.487 389.601L150.417 375.409C150.195 375.168 149.887 375.026 149.56 375.013C149.234 374.999 148.915 375.116 148.674 375.338L130.214 392.338C129.974 392.56 129.831 392.868 129.818 393.195C129.804 393.521 129.921 393.84 130.142 394.081L143.212 408.273C143.434 408.513 143.742 408.656 144.068 408.669C144.395 408.683 144.714 408.566 144.954 408.344L163.415 391.343Z" stroke="#E0E0E0" stroke-width="2" stroke-miterlimit="2" stroke-linecap="round" stroke-linejoin="round"/>
<path d="M146.177 387.937L150.653 392.797M147.773 386.466L148.541 386.499C148.744 386.507 148.935 386.596 149.073 386.746C149.211 386.895 149.283 387.094 149.275 387.297C149.267 387.5 149.339 387.698 149.477 387.848C149.615 387.997 149.806 388.086 150.009 388.094L150.045 388.096C150.153 388.1 150.259 388.127 150.357 388.173C150.455 388.22 150.542 388.286 150.614 388.367C150.685 388.448 150.74 388.543 150.773 388.646C150.807 388.748 150.82 388.857 150.811 388.965C150.794 389.388 151.122 389.745 151.545 389.762L151.547 389.762C151.647 389.766 151.746 389.79 151.838 389.832C151.929 389.874 152.011 389.934 152.08 390.008C152.148 390.082 152.201 390.169 152.235 390.264C152.27 390.358 152.285 390.459 152.281 390.559L152.249 391.327M154.816 388.963C155.461 388.369 155.843 387.544 155.879 386.668C155.915 385.793 155.602 384.939 155.009 384.294C154.415 383.65 153.59 383.268 152.715 383.232C151.839 383.196 150.985 383.509 150.341 384.102L149.89 384.517L154.366 389.377L154.816 388.963ZM144.918 400.489L138.04 393.02L135.372 395.477L142.251 402.946L144.918 400.489Z" stroke="#E0E0E0" stroke-width="2" stroke-miterlimit="2" stroke-linecap="round" stroke-linejoin="round"/>
<path fill-rule="evenodd" clip-rule="evenodd" d="M163.415 391.343C163.655 391.122 163.798 390.814 163.811 390.487C163.825 390.161 163.708 389.842 163.487 389.601L150.417 375.409C150.195 375.168 149.887 375.026 149.56 375.013C149.234 374.999 148.915 375.116 148.674 375.338L130.214 392.338C129.974 392.56 129.831 392.868 129.818 393.195C129.804 393.521 129.921 393.84 130.142 394.081L143.212 408.273C143.434 408.513 143.742 408.656 144.068 408.669C144.395 408.683 144.714 408.566 144.954 408.344L163.415 391.343Z" stroke="#E0E0E0" stroke-width="2" stroke-miterlimit="2" stroke-linecap="round" stroke-linejoin="round"/>
<path d="M131.76 390.914L143.966 370.57C144.134 370.29 144.407 370.088 144.724 370.008C145.041 369.929 145.377 369.979 145.658 370.147L162.202 380.072C162.482 380.241 162.685 380.514 162.764 380.831C162.843 381.148 162.793 381.484 162.625 381.765L161.685 383.332" stroke="#E0E0E0" stroke-width="2" stroke-miterlimit="2" stroke-linecap="round" stroke-linejoin="round"/>
<path d="M146.177 387.937L150.653 392.797M147.773 386.466L148.541 386.499C148.744 386.507 148.935 386.596 149.073 386.746C149.211 386.895 149.283 387.094 149.275 387.297C149.267 387.5 149.339 387.698 149.477 387.848C149.615 387.997 149.806 388.086 150.009 388.094L150.045 388.096C150.153 388.1 150.259 388.127 150.357 388.173C150.455 388.22 150.542 388.286 150.614 388.367C150.685 388.448 150.74 388.543 150.773 388.646C150.807 388.748 150.82 388.857 150.811 388.965C150.794 389.388 151.122 389.745 151.545 389.762L151.547 389.762C151.647 389.766 151.746 389.79 151.838 389.832C151.929 389.874 152.011 389.934 152.08 390.008C152.148 390.082 152.201 390.169 152.235 390.264C152.27 390.358 152.285 390.459 152.281 390.559L152.249 391.327M154.816 388.963C155.461 388.369 155.843 387.544 155.879 386.668C155.915 385.793 155.602 384.939 155.009 384.294C154.415 383.65 153.59 383.268 152.715 383.232C151.839 383.196 150.985 383.509 150.341 384.102L149.89 384.517L154.366 389.377L154.816 388.963ZM144.918 400.489L138.04 393.02L135.372 395.477L142.251 402.946L144.918 400.489Z" stroke="#E0E0E0" stroke-width="2" stroke-miterlimit="2" stroke-linecap="round" stroke-linejoin="round"/>
</g>
<g clip-path="url(#clip1_72_2)">
<path d="M117.818 472.625L110.723 479.652C110.541 479.83 110.397 480.042 110.298 480.276C110.199 480.51 110.148 480.762 110.147 481.016C110.145 481.27 110.194 481.521 110.29 481.757C110.385 481.992 110.527 482.206 110.706 482.386L119.497 491.315L125.057 489.259L127.932 492.179L127.439 492.667L136.377 501.748C136.586 501.961 136.835 502.129 137.11 502.245C137.384 502.36 137.679 502.42 137.977 502.42C138.583 502.424 139.152 502.194 139.582 501.769C139.794 501.559 139.963 501.309 140.079 501.034C140.195 500.758 140.255 500.463 140.256 500.164C140.258 499.866 140.202 499.571 140.089 499.295C139.977 499.019 139.812 498.767 139.602 498.556L130.664 489.474L130.109 490.024L127.234 487.103L129.336 481.571L120.545 472.642C120.367 472.462 120.156 472.318 119.922 472.22C119.689 472.121 119.439 472.07 119.185 472.069C118.932 472.067 118.681 472.115 118.446 472.21C118.212 472.306 117.998 472.447 117.818 472.625ZM138.773 499.376C138.875 499.479 138.956 499.601 139.01 499.736C139.065 499.87 139.093 500.014 139.092 500.159C139.091 500.304 139.061 500.447 139.005 500.581C138.949 500.715 138.867 500.836 138.763 500.938C138.661 501.039 138.539 501.119 138.405 501.173C138.272 501.227 138.129 501.254 137.985 501.252C137.689 501.25 137.414 501.136 137.206 500.928L129.086 492.677L130.654 491.125L138.773 499.376ZM119.716 473.467L127.982 481.858L125.877 487.391L129.276 490.844L128.76 491.359L125.361 487.902L119.797 489.957L111.534 481.566C111.245 481.272 111.248 480.769 111.541 480.483L118.636 473.46C118.781 473.313 118.972 473.236 119.178 473.237C119.278 473.237 119.378 473.257 119.47 473.296C119.563 473.336 119.646 473.394 119.716 473.467ZM137.068 498.448L136.791 498.722L130.625 492.459L130.902 492.185L137.068 498.448ZM137.935 499.329L137.659 499.602L137.127 499.062L137.403 498.788L137.935 499.329Z" fill="#E0E0E0"/>
</g>
<g clip-path="url(#clip2_72_2)">
<path d="M69.3052 581.081L74.2224 582.526L69.888 597.278C69.7602 597.712 69.8104 598.18 70.0275 598.578C70.2446 598.975 69.6513 598.989 70.086 599.116L89.7545 604.895C90.1892 605.023 89.6974 604.691 90.0951 604.474C90.4928 604.257 90.788 603.891 90.9157 603.456L95.2501 588.705L101.127 590.431C101.561 590.559 101.07 590.227 101.467 590.01C101.865 589.793 101.878 590.386 102.006 589.952L105.859 576.839C105.948 576.535 105.951 576.211 105.867 575.905C105.783 575.599 105.616 575.322 105.383 575.106L100.468 571.143C100.274 570.962 100.04 570.83 99.7859 570.755L94.8687 569.311C94.434 569.183 93.9664 569.233 93.5687 569.45C93.171 569.667 93.1577 569.074 93.03 569.509C92.7745 570.378 92.1842 571.11 91.3888 571.544C90.5934 571.979 89.6581 572.079 88.7887 571.824C87.9193 571.568 87.187 570.978 86.7529 570.182C86.3187 569.387 86.2184 568.452 86.4738 567.582C86.6015 567.148 86.2694 567.639 86.0524 567.242C85.8353 566.844 85.4692 566.549 85.0345 566.421L80.1173 564.976C79.8645 564.899 79.5973 564.881 79.3365 564.925L73.0585 565.599C72.7446 565.655 72.4527 565.798 72.2159 566.012C71.9792 566.226 71.8069 566.501 71.7187 566.808L67.8659 579.92C67.7381 580.355 68.0702 579.863 68.2873 580.261C68.5044 580.658 68.8705 580.954 69.3052 581.081ZM72.4063 597.279L73.3695 594.001L89.7599 598.817L88.7968 602.095L72.4063 597.279ZM73.7397 568.502L79.8229 567.409L82.9206 568.319C82.8689 569.834 83.6045 570.364 84.4921 571.593C85.3797 572.822 86.6509 573.721 88.1055 574.149C89.5601 574.576 91.1156 574.508 92.527 573.954C93.9385 573.4 94.8438 573.353 95.62 572.05L98.7178 572.96L103.242 577.171L100.169 587.631L95.9314 586.386L97.3762 581.469C97.5039 581.034 97.4537 580.567 97.2367 580.169C97.0196 579.771 96.925 579.666 96.4903 579.538C96.0556 579.411 96.1081 579.503 95.7104 579.72C95.3127 579.938 95.1853 580.353 95.0575 580.788L90.3418 596.837L73.9513 592.021L78.6671 575.972C78.7948 575.537 78.9552 575.131 78.7381 574.734C78.4975 574.293 78.2609 574.182 77.7812 574.041C77.7812 574.041 77.5667 574.055 77.169 574.272C76.7714 574.49 76.4762 574.856 76.3484 575.29L74.9036 580.208L70.6661 578.962L73.7397 568.502Z" fill="#E0E0E0"/>
</g>
<defs>
<clipPath id="clip0_72_2">
<rect width="42" height="42" fill="white" transform="translate(142.887 360.588) rotate(37.04)"/>
</clipPath>
<clipPath id="clip1_72_2">
<rect width="30.2307" height="30.2307" fill="white" transform="translate(110.011 502.241) rotate(-89.6332)"/>
</clipPath>
<clipPath id="clip2_72_2">
<rect width="41" height="41" fill="white" transform="translate(71.0466 559.488) rotate(16.3743)"/>
</clipPath>
</defs>
</svg>
