<svg width="82" height="82" viewBox="0 0 82 82" fill="none" xmlns="http://www.w3.org/2000/svg">
<path d="M21.7813 16.6562V66.5597C21.7809 67.2414 21.9149 67.9164 22.1757 68.5463C22.4364 69.1762 22.8187 69.7485 23.3007 70.2305C23.7828 70.7126 24.3551 71.0949 24.9849 71.3556C25.6148 71.6163 26.2899 71.7503 26.9716 71.75H55.0284C55.7101 71.7503 56.3852 71.6163 57.0151 71.3556C57.6449 71.0949 58.2172 70.7126 58.6993 70.2305C59.1813 69.7485 59.5636 69.1762 59.8243 68.5463C60.0851 67.9164 60.2191 67.2414 60.2188 66.5597V23.0625" stroke="#175428" stroke-width="4" stroke-miterlimit="2" stroke-linecap="round" stroke-linejoin="round"/>
<path d="M46.125 16.6562H60.2188C61.0683 16.6562 61.883 16.3188 62.4837 15.7181C63.0844 15.1174 63.4219 14.3026 63.4219 13.4531C63.4219 12.6036 63.0844 11.7889 62.4837 11.1882C61.883 10.5875 61.0683 10.25 60.2188 10.25H21.7812C20.9317 10.25 20.117 10.5875 19.5163 11.1882C18.9156 11.7889 18.5781 12.6036 18.5781 13.4531C18.5781 14.3026 18.9156 15.1174 19.5163 15.7181C20.117 16.3188 20.9317 16.6562 21.7812 16.6562H30.75M49.9688 21.7812H55.0938M32.0312 66.625H49.9688" stroke="#175428" stroke-width="4" stroke-miterlimit="2" stroke-linecap="round" stroke-linejoin="round"/>
<circle cx="35" cy="36" r="2" fill="#175428"/>
<circle cx="46.5" cy="37.5" r="3.5" fill="#175428"/>
</svg>
