<svg width="1577" height="470" viewBox="0 0 1577 470" fill="none" xmlns="http://www.w3.org/2000/svg">
<g clip-path="url(#clip0_32_89)">
<g clip-path="url(#clip1_32_89)">
<path d="M439.259 105.022L436.442 102.932L455.437 77.3318L457.439 79.3522H459.694L460.553 82.8163L465.01 97.3212L461.657 98.352L457.16 83.7071L456.95 82.8601H455.976L455.82 82.7026L439.259 105.022Z" fill="#E0E0E0"/>
<path d="M503.202 176.518H491.995V173.011H500.057L508.087 99.8168H456.854C457.346 104.039 457.962 108.626 458.559 113.084C459.254 118.266 459.972 123.626 460.497 128.411L457.011 128.793C456.491 124.051 455.775 118.712 455.083 113.55C454.389 108.379 453.673 103.031 453.148 98.2549L452.935 96.3098H512L503.202 176.518Z" fill="#E0E0E0"/>
<path d="M456.168 104.402H493.342V107.91H456.168V104.402ZM493.019 138.81L490.382 136.495C492.205 134.417 493.209 131.746 493.206 128.982C493.206 122.743 488.192 117.667 482.029 117.667C475.868 117.667 470.854 122.743 470.854 128.982H467.347C467.347 120.809 473.933 114.16 482.029 114.16C490.127 114.16 496.714 120.81 496.714 128.982C496.716 132.598 495.402 136.091 493.019 138.81ZM447.251 184.669C434.717 184.669 422.186 182.864 411.962 179.258C407.541 177.66 404.057 174.211 404.016 171.401V169.083C404.003 168.228 404.37 166.565 406.975 165.323L408.486 168.488C407.827 168.802 407.591 169.063 407.524 169.154V171.376C407.535 172.102 409.517 174.643 413.143 175.954C432.585 182.814 461.927 182.812 481.383 175.951C484.994 174.643 486.978 172.099 486.989 171.348V169.152C486.88 169.003 486.458 168.623 485.468 168.251L486.705 164.968C490.037 166.225 490.511 168.101 490.497 169.107V171.375C490.453 174.21 486.968 177.658 482.563 179.252C472.329 182.862 459.788 184.669 447.251 184.669ZM407.678 152.215C405.972 151.504 403.99 149.965 404.016 147.962V145.69C404.058 142.861 407.543 139.411 411.949 137.815C432.415 130.597 462.101 130.597 482.548 137.81C486.968 139.408 490.453 142.855 490.496 145.663V147.985C490.512 149.013 489.999 150.964 486.39 152.213L485.244 148.898C486.39 148.502 486.87 148.079 486.988 147.917V145.69C486.977 144.966 484.994 142.423 481.369 141.114C461.929 134.256 432.586 134.258 413.13 141.118C409.518 142.427 407.535 144.968 407.524 145.717V147.894C407.64 148.092 408.117 148.6 409.027 148.979L407.678 152.215Z" fill="#E0E0E0"/>
<path d="M484.01 168.41H409.642C404.325 168.41 400 164.047 400 158.684C400 153.323 404.325 148.96 409.642 148.96H484.01C489.326 148.96 493.651 153.323 493.651 158.684C493.65 164.047 489.326 168.41 484.01 168.41ZM409.642 152.468C406.261 152.468 403.508 155.258 403.508 158.684C403.508 162.112 406.261 164.903 409.642 164.903H484.01C487.391 164.903 490.144 162.112 490.144 158.684C490.144 155.258 487.391 152.468 484.01 152.468H409.642Z" fill="#E0E0E0"/>
<path d="M484.01 161.162C481.548 161.162 480.255 160.637 479.112 160.172C478.106 159.764 477.31 159.441 475.534 159.441C473.76 159.441 472.965 159.764 471.958 160.172C470.816 160.637 469.522 161.162 467.059 161.162C464.598 161.162 463.305 160.637 462.163 160.172C461.158 159.764 460.364 159.441 458.59 159.441C456.816 159.441 456.021 159.764 455.016 160.172C453.874 160.637 452.58 161.162 450.118 161.162C447.658 161.162 446.365 160.637 445.223 160.172C444.218 159.764 443.424 159.441 441.65 159.441C439.876 159.441 439.082 159.764 438.078 160.172C436.936 160.637 435.644 161.162 433.184 161.162C430.725 161.162 429.431 160.637 428.29 160.172C427.285 159.764 426.491 159.441 424.717 159.441C422.944 159.441 422.15 159.764 421.144 160.172C420.002 160.637 418.71 161.162 416.249 161.162C413.789 161.162 412.496 160.637 411.355 160.172C410.349 159.764 409.555 159.441 407.78 159.441V155.932C410.241 155.932 411.535 156.459 412.676 156.924C413.681 157.332 414.475 157.655 416.249 157.655C418.023 157.655 418.818 157.332 419.823 156.924C420.964 156.459 422.257 155.932 424.717 155.932C427.177 155.932 428.471 156.459 429.612 156.924C430.616 157.332 431.411 157.655 433.184 157.655C434.957 157.655 435.752 157.332 436.756 156.924C437.897 156.459 439.189 155.932 441.65 155.932C444.11 155.932 445.403 156.459 446.545 156.924C447.55 157.332 448.345 157.655 450.118 157.655C451.894 157.655 452.689 157.332 453.694 156.924C454.836 156.459 456.129 155.932 458.59 155.932C461.05 155.932 462.344 156.459 463.484 156.924C464.49 157.332 465.285 157.655 467.059 157.655C468.836 157.655 469.631 157.332 470.638 156.924C471.78 156.459 473.073 155.932 475.534 155.932C477.995 155.932 479.29 156.459 480.433 156.924C481.438 157.332 482.233 157.655 484.01 157.655V161.162Z" fill="#E0E0E0"/>
</g>
<path fill-rule="evenodd" clip-rule="evenodd" d="M727.704 170.2C727.297 170.199 726.902 170.058 726.583 169.802C726.265 169.545 726.04 169.188 725.947 168.786C725.723 167.805 726.323 166.823 727.292 166.596L764.3 157.865V132.124C764.3 131.113 765.109 130.3 766.1 130.3C767.09 130.3 767.9 131.12 767.9 132.124V159.315C767.9 159.728 767.762 160.128 767.509 160.452C767.256 160.775 766.902 161.002 766.505 161.095L728.101 170.156C727.971 170.185 727.837 170.2 727.704 170.2Z" fill="#E0E0E0"/>
<path fill-rule="evenodd" clip-rule="evenodd" d="M728.289 170.2C728.151 170.2 728.012 170.185 727.873 170.149L689.502 161.104C688.677 160.914 688.1 160.175 688.1 159.327V132.345C688.1 131.336 688.918 130.524 689.918 130.524C690.918 130.524 691.736 131.343 691.736 132.345V157.886L726.464 166.069V105.488C726.473 105.011 726.668 104.556 727.008 104.222C727.348 103.887 727.806 103.7 728.282 103.7C728.759 103.7 729.216 103.887 729.556 104.222C729.896 104.556 730.091 105.011 730.1 105.488V168.379C730.1 168.935 729.844 169.461 729.406 169.805C729.091 170.061 728.696 170.201 728.289 170.2Z" fill="#E0E0E0"/>
<path fill-rule="evenodd" clip-rule="evenodd" d="M679.441 135.2C678.849 135.2 678.295 134.918 677.947 134.428C677.762 134.172 677.646 133.871 677.611 133.556C677.576 133.242 677.623 132.923 677.747 132.632L687.26 109.921C687.511 109.312 688.073 108.889 688.724 108.8L728.016 103.716C728.342 103.673 728.674 103.718 728.977 103.847C729.281 103.976 729.544 104.185 729.739 104.451C729.935 104.715 730.056 105.028 730.09 105.356C730.124 105.684 730.069 106.015 729.931 106.314L718.518 131.392C718.381 131.695 718.165 131.955 717.893 132.144C717.621 132.334 717.303 132.446 716.972 132.468L679.582 135.192C679.53 135.2 679.486 135.2 679.441 135.2ZM690.248 112.341L682.311 131.289L715.619 128.869L725.197 107.82L690.248 112.341Z" fill="#E0E0E0"/>
<path fill-rule="evenodd" clip-rule="evenodd" d="M776.561 135.2C776.517 135.2 776.473 135.2 776.428 135.193L739.029 132.475C738.699 132.451 738.381 132.339 738.109 132.149C737.837 131.96 737.621 131.701 737.483 131.399L726.069 106.314C725.931 106.015 725.876 105.684 725.91 105.356C725.944 105.028 726.065 104.716 726.261 104.451C726.457 104.185 726.72 103.976 727.023 103.847C727.326 103.718 727.658 103.673 727.985 103.716L767.278 108.801C767.929 108.883 768.484 109.314 768.743 109.922L778.255 132.639C778.378 132.931 778.424 133.249 778.389 133.564C778.354 133.878 778.239 134.178 778.056 134.436C777.884 134.672 777.659 134.865 777.4 134.998C777.14 135.13 776.853 135.2 776.561 135.2ZM740.383 128.868L773.692 131.288L765.755 112.335L730.803 107.814L740.383 128.868Z" fill="#E0E0E0"/>
<g clip-path="url(#clip2_32_89)">
<path d="M1034.65 122.719L963.035 103.531L990.015 157.847L1008.53 133.158L1008.53 133.154C1008.75 132.854 1009.07 132.634 1009.43 132.527L1034.65 122.719H1034.65ZM960.202 99.1535L1040.62 120.7C1041.17 120.819 1041.66 121.207 1041.88 121.777C1042.23 122.678 1041.78 123.692 1040.88 124.043L1040.25 122.412L1040.88 124.038L1011.02 135.65L991.198 162.08C991.027 162.357 990.781 162.581 990.489 162.726C989.623 163.156 988.573 162.802 988.143 161.937L989.711 161.158L988.145 161.931L958.241 101.727C958.012 101.337 957.933 100.859 958.06 100.389C958.31 99.455 959.269 98.901 960.203 99.151L960.202 99.1532L960.202 99.1535Z" fill="#E0E0E0"/>
<path d="M960.716 99.388C959.912 98.8557 958.829 99.076 958.296 99.8802C957.764 100.684 957.984 101.768 958.788 102.3L1008.96 135.663C1009.77 136.195 1010.85 135.975 1011.38 135.17C1011.92 134.366 1011.7 133.283 1010.89 132.75L960.716 99.388Z" fill="#E0E0E0"/>
<path d="M1011.67 134.067C1011.59 133.105 1010.75 132.385 1009.79 132.461C1008.83 132.536 1008.11 133.378 1008.18 134.341L1009.77 154.116L1002.54 144.824C1001.94 144.062 1000.85 143.924 1000.08 144.517C999.321 145.11 999.183 146.208 999.776 146.971L1010.55 160.825C1010.9 161.306 1011.48 161.599 1012.11 161.549C1013.08 161.472 1013.8 160.628 1013.72 159.665L1013.72 159.665L1011.67 134.067Z" fill="#E0E0E0"/>
</g>
<path d="M1317.73 128.542C1316.92 120.114 1316.58 111.81 1314.85 103.521C1315.22 103.197 1315.52 102.799 1315.72 102.352C1315.93 101.906 1316.04 101.422 1316.04 100.931V90.1858C1316.03 88.3971 1314.72 86.6843 1313.46 85.4195C1312.19 84.1547 1310.58 84.6067 1308.79 84.5975L1232.04 84.5974C1232.04 84.5974 1228.78 84.1547 1227.51 85.4195C1226.25 86.6843 1225.05 88.3971 1225.04 90.1858V100.931C1225.05 101.422 1225.16 101.906 1225.36 102.352C1225.57 102.799 1225.86 103.197 1226.23 103.521C1224.51 111.81 1223.91 120.188 1223.1 128.616C1221.98 140.6 1222.33 152.199 1223.1 164.211C1223.28 166.807 1223.49 168.349 1225.36 170.153C1227.24 171.957 1229.44 172.325 1232.04 172.405H1256.79C1258.96 172.385 1261.8 171.449 1263.54 170.153C1265.28 168.857 1265.37 168.518 1266.02 166.444L1270.54 154.446L1276.32 166.444C1276.96 168.512 1278.28 170.207 1280.02 171.503C1281.75 172.798 1282.1 172.377 1284.26 172.405H1309.04C1311.64 172.325 1313.85 171.957 1315.72 170.153C1317.6 168.349 1318.49 166.807 1318.67 164.211C1319.44 152.199 1318.85 140.526 1317.73 128.542ZM1232.04 90.4308H1309.04V97.4308H1232.04V90.4308ZM1312.19 164.211C1312.18 165.05 1311.85 165.854 1311.26 166.454C1310.68 167.054 1309.88 167.404 1309.04 167.431H1284.26C1283.58 167.405 1282.93 167.163 1282.39 166.742C1281.86 166.321 1281.47 165.741 1281.29 165.086L1276.32 149.511C1275.93 148.283 1275.16 147.21 1274.12 146.448C1273.08 145.686 1271.83 145.276 1270.54 145.276C1269.25 145.276 1268 145.686 1266.96 146.448C1265.92 147.21 1265.15 148.283 1264.77 149.511L1259.8 165.086C1259.61 165.747 1259.22 166.33 1258.68 166.752C1258.13 167.174 1257.47 167.412 1256.79 167.431H1232.04C1231.21 167.395 1230.41 167.043 1229.83 166.444C1229.24 165.846 1228.91 165.048 1228.89 164.211C1227.55 144.181 1229 124.062 1233.2 104.431H1260.04V114.931C1260.04 115.859 1260.41 116.749 1261.07 117.406C1261.72 118.062 1262.61 118.431 1263.54 118.431C1264.47 118.431 1265.36 118.062 1266.02 117.406C1266.67 116.749 1267.04 115.859 1267.04 114.931V104.431H1274.04V121.931C1274.04 122.859 1274.41 123.749 1275.07 124.406C1275.72 125.062 1276.61 125.431 1277.54 125.431C1278.47 125.431 1279.36 125.062 1280.02 124.406C1280.67 123.749 1281.04 122.859 1281.04 121.931V104.431H1307.89C1309.63 112.623 1310.9 120.908 1311.7 129.246C1312.79 140.869 1312.96 152.561 1312.19 164.211Z" fill="#E0E0E0"/>
<path d="M1586.23 98.1595L1584.41 96.3386C1584.26 96.1964 1584.1 96.0836 1583.91 96.0066C1583.72 95.9297 1583.52 95.8901 1583.32 95.8901C1583.12 95.8901 1582.92 95.9297 1582.74 96.0066C1582.55 96.0836 1582.38 96.1964 1582.24 96.3386L1579.12 99.458L1575.54 95.8792L1578.66 92.759C1578.8 92.6168 1578.92 92.448 1578.99 92.2622C1579.07 92.0764 1579.11 91.8773 1579.11 91.6762C1579.11 91.4751 1579.07 91.2759 1578.99 91.0902C1578.92 90.9044 1578.8 90.7356 1578.66 90.5934L1576.84 88.7734C1574.32 86.2604 1570.91 84.8491 1567.35 84.8491C1563.79 84.8491 1560.38 86.2604 1557.86 88.7734C1557.72 88.9155 1557.61 89.0843 1557.53 89.2701C1557.46 89.4559 1557.42 89.655 1557.42 89.8562C1557.42 90.0573 1557.46 90.2565 1557.53 90.4423C1557.61 90.6281 1557.72 90.7969 1557.86 90.939L1563.45 96.5197L1555.71 104.252L1551.63 101.967C1550.69 101.442 1549.58 101.312 1548.55 101.604C1547.52 101.896 1546.64 102.587 1546.12 103.525C1545.59 104.462 1545.46 105.57 1545.75 106.604C1546.05 107.638 1546.74 108.513 1547.67 109.037L1549.76 110.207L1545.28 114.694L1541.19 112.408C1540.73 112.148 1540.22 111.982 1539.69 111.92C1539.16 111.857 1538.63 111.899 1538.12 112.044C1537.6 112.188 1537.13 112.432 1536.71 112.761C1536.29 113.09 1535.94 113.499 1535.68 113.963C1535.42 114.427 1535.26 114.938 1535.19 115.466C1535.13 115.994 1535.17 116.529 1535.32 117.041C1535.46 117.553 1535.71 118.031 1536.04 118.449C1536.36 118.867 1536.77 119.216 1537.24 119.475L1539.33 120.645L1534.84 125.132L1530.76 122.846C1530.29 122.586 1529.78 122.42 1529.25 122.358C1528.73 122.295 1528.19 122.337 1527.68 122.482C1527.17 122.626 1526.69 122.87 1526.27 123.199C1525.85 123.528 1525.5 123.937 1525.24 124.401C1524.98 124.865 1524.82 125.375 1524.76 125.904C1524.69 126.432 1524.74 126.967 1524.88 127.479C1525.02 127.991 1525.27 128.469 1525.6 128.887C1525.93 129.305 1526.34 129.653 1526.8 129.913L1528.89 131.083L1524.4 135.567L1520.32 133.281C1519.38 132.756 1518.27 132.625 1517.24 132.917C1516.21 133.208 1515.33 133.899 1514.8 134.836C1514.28 135.773 1514.15 136.88 1514.44 137.914C1514.73 138.948 1515.42 139.824 1516.36 140.348L1518.45 141.518L1513.96 146.005L1509.87 143.719C1508.94 143.194 1507.83 143.063 1506.8 143.355C1505.76 143.646 1504.89 144.337 1504.36 145.274C1503.84 146.211 1503.71 147.318 1504 148.352C1504.29 149.386 1504.98 150.262 1505.92 150.786L1508.01 151.956L1503.86 156.102C1503.68 156.28 1503.55 156.5 1503.48 156.742L1497.9 175.182C1497.82 175.448 1497.82 175.73 1497.89 175.998C1497.95 176.267 1498.09 176.513 1498.29 176.709C1498.48 176.905 1498.73 177.044 1499 177.111C1499.27 177.179 1499.55 177.172 1499.81 177.091L1518.25 171.519C1518.5 171.446 1518.72 171.314 1518.89 171.135L1527.28 162.749L1531.36 165.036C1531.83 165.296 1532.34 165.462 1532.87 165.524C1533.39 165.587 1533.93 165.544 1534.44 165.4C1534.95 165.256 1535.43 165.012 1535.85 164.683C1536.27 164.353 1536.62 163.945 1536.88 163.481C1537.14 163.017 1537.3 162.506 1537.36 161.978C1537.43 161.45 1537.38 160.914 1537.24 160.403C1537.1 159.891 1536.85 159.412 1536.52 158.995C1536.19 158.577 1535.78 158.228 1535.32 157.968L1533.24 156.798L1537.72 152.311L1541.81 154.598C1542.27 154.858 1542.78 155.024 1543.31 155.086C1543.84 155.149 1544.37 155.106 1544.89 154.962C1545.4 154.818 1545.88 154.574 1546.29 154.245C1546.71 153.915 1547.06 153.507 1547.32 153.043C1547.58 152.579 1547.75 152.068 1547.81 151.54C1547.87 151.012 1547.83 150.477 1547.68 149.965C1547.54 149.453 1547.3 148.974 1546.97 148.557C1546.64 148.139 1546.23 147.79 1545.76 147.53L1543.68 146.361L1548.16 141.874L1552.25 144.16C1552.71 144.42 1553.22 144.586 1553.75 144.648C1554.28 144.711 1554.81 144.669 1555.32 144.524C1555.84 144.38 1556.31 144.136 1556.73 143.807C1557.15 143.477 1557.5 143.069 1557.76 142.605C1558.02 142.141 1558.18 141.63 1558.25 141.102C1558.31 140.574 1558.27 140.039 1558.12 139.527C1557.98 139.015 1557.73 138.537 1557.4 138.119C1557.08 137.701 1556.67 137.352 1556.2 137.093L1554.11 135.923L1558.6 131.437L1562.68 133.721C1563.15 133.981 1563.66 134.147 1564.18 134.209C1564.71 134.272 1565.25 134.23 1565.76 134.085C1566.27 133.941 1566.75 133.697 1567.17 133.368C1567.58 133.038 1567.93 132.63 1568.19 132.166C1568.45 131.702 1568.62 131.191 1568.68 130.663C1568.74 130.135 1568.7 129.6 1568.56 129.088C1568.41 128.576 1568.17 128.098 1567.84 127.68C1567.51 127.262 1567.1 126.914 1566.64 126.654L1564.55 125.487L1569.04 121L1573.12 123.287C1573.58 123.547 1574.09 123.712 1574.62 123.775C1575.15 123.837 1575.69 123.794 1576.2 123.649C1576.71 123.505 1577.19 123.26 1577.61 122.931C1578.03 122.601 1578.37 122.192 1578.63 121.728C1578.89 121.263 1579.06 120.752 1579.12 120.223C1579.18 119.695 1579.14 119.159 1579 118.647C1578.85 118.135 1578.61 117.656 1578.28 117.239C1577.95 116.821 1577.54 116.472 1577.07 116.212L1574.99 115.043L1578.48 111.55L1584.06 117.131C1584.2 117.274 1584.37 117.386 1584.56 117.463C1584.74 117.541 1584.94 117.58 1585.14 117.58C1585.34 117.58 1585.54 117.541 1585.73 117.463C1585.91 117.386 1586.08 117.274 1586.22 117.131C1588.74 114.613 1590.15 111.202 1590.15 107.646C1590.15 104.089 1588.74 100.678 1586.23 98.1595ZM1517 168.698L1501.67 173.335L1506.3 157.998L1510.79 153.514L1524.51 161.197L1517 168.698ZM1534.21 161.984C1534.08 162.212 1533.87 162.38 1533.61 162.451C1533.36 162.522 1533.09 162.491 1532.86 162.363L1507.42 148.114C1507.19 147.983 1507.03 147.771 1506.97 147.522C1506.9 147.273 1506.93 147.007 1507.06 146.782C1507.18 146.557 1507.39 146.39 1507.64 146.317C1507.89 146.244 1508.15 146.271 1508.38 146.391L1533.83 160.641C1534.06 160.769 1534.22 160.982 1534.3 161.234C1534.37 161.485 1534.34 161.755 1534.21 161.984ZM1530.46 155.246L1516.74 147.56L1521.22 143.075L1534.95 150.758L1530.46 155.246ZM1544.65 151.548C1544.52 151.777 1544.3 151.945 1544.05 152.016C1543.8 152.087 1543.53 152.056 1543.3 151.928L1517.86 137.676C1517.63 137.545 1517.47 137.333 1517.4 137.084C1517.34 136.835 1517.37 136.569 1517.49 136.344C1517.62 136.119 1517.83 135.952 1518.08 135.879C1518.32 135.806 1518.59 135.833 1518.82 135.953L1544.26 150.202C1544.49 150.329 1544.66 150.543 1544.73 150.795C1544.8 151.047 1544.77 151.317 1544.65 151.546V151.548ZM1540.9 144.811L1527.18 137.125L1531.66 132.634L1545.38 140.319L1540.9 144.811ZM1555.08 141.113C1554.96 141.341 1554.74 141.509 1554.49 141.581C1554.24 141.652 1553.97 141.62 1553.74 141.493L1528.29 127.237C1528.07 127.107 1527.91 126.894 1527.84 126.645C1527.77 126.396 1527.81 126.131 1527.93 125.906C1528.06 125.68 1528.27 125.513 1528.51 125.44C1528.76 125.367 1529.03 125.394 1529.26 125.515L1554.7 139.764C1554.93 139.892 1555.1 140.106 1555.17 140.357C1555.24 140.609 1555.21 140.879 1555.08 141.108V141.113ZM1551.34 134.376L1537.61 126.684L1542.1 122.197L1555.82 129.88L1551.34 134.376ZM1565.52 130.67C1565.4 130.898 1565.18 131.067 1564.93 131.138C1564.68 131.209 1564.41 131.177 1564.18 131.05L1538.73 116.8C1538.51 116.669 1538.35 116.456 1538.28 116.207C1538.21 115.958 1538.24 115.693 1538.37 115.468C1538.5 115.242 1538.71 115.075 1538.95 115.002C1539.2 114.929 1539.47 114.956 1539.69 115.077L1565.14 129.326C1565.37 129.454 1565.54 129.667 1565.61 129.919C1565.68 130.171 1565.65 130.441 1565.52 130.67ZM1561.78 123.933L1548.05 116.246L1552.54 111.759L1566.26 119.442L1561.78 123.933ZM1575.96 120.235C1575.83 120.463 1575.62 120.631 1575.37 120.703C1575.12 120.774 1574.85 120.742 1574.62 120.615L1549.17 106.362C1548.95 106.231 1548.78 106.018 1548.72 105.769C1548.65 105.52 1548.68 105.255 1548.81 105.03C1548.93 104.805 1549.14 104.638 1549.39 104.565C1549.64 104.491 1549.9 104.518 1550.13 104.639L1575.58 118.888C1575.81 119.016 1575.97 119.229 1576.05 119.481C1576.12 119.733 1576.09 120.003 1575.96 120.231L1575.96 120.235ZM1572.21 113.497L1558.49 105.808L1565.61 98.6854L1576.31 109.387L1572.21 113.497ZM1585.07 113.813L1561.19 89.9362C1563.19 88.4632 1565.65 87.7544 1568.12 87.9384C1570.59 88.1224 1572.92 89.187 1574.68 90.939L1575.41 91.6757L1572.29 94.796C1572.15 94.9381 1572.04 95.1069 1571.96 95.2927C1571.88 95.4785 1571.85 95.6777 1571.85 95.8788C1571.85 96.0799 1571.88 96.2791 1571.96 96.4649C1572.04 96.6507 1572.15 96.8195 1572.29 96.9616L1578.04 102.706C1578.18 102.848 1578.35 102.961 1578.54 103.038C1578.72 103.115 1578.92 103.155 1579.12 103.155C1579.32 103.155 1579.52 103.115 1579.71 103.038C1579.89 102.961 1580.06 102.848 1580.2 102.706L1583.32 99.5866L1584.06 100.324C1585.81 102.08 1586.88 104.406 1587.06 106.88C1587.24 109.353 1586.54 111.811 1585.06 113.807L1585.07 113.813Z" fill="#E0E0E0"/>
<circle cx="326" cy="248" r="48" stroke="#E0E0E0" stroke-width="4" stroke-linecap="round" stroke-dasharray="24 24"/>
<circle cx="326" cy="248" r="25" stroke="#E0E0E0" stroke-width="4" stroke-linecap="round" stroke-dasharray="24 24"/>
<line x1="318" y1="192" x2="3338" y2="192" stroke="#E0E0E0" stroke-width="4" stroke-linecap="round" stroke-dasharray="32 32"/>
<line x1="318" y1="303" x2="3338" y2="303" stroke="#E0E0E0" stroke-width="4" stroke-linecap="round" stroke-dasharray="32 32"/>
<g clip-path="url(#clip3_32_89)">
<path d="M255.596 375.589H249.308L247.107 366.787C246.322 363.634 244.504 360.834 241.943 358.834C239.382 356.834 236.225 355.75 232.975 355.753H184.562L179.095 339.351C177.803 335.461 175.317 332.078 171.992 329.681C168.667 327.284 164.671 325.996 160.572 326H132.428C128.329 325.996 124.333 327.284 121.008 329.681C117.682 332.078 115.197 335.461 113.904 339.351L108.437 355.753H60.0245C56.7748 355.75 53.6176 356.834 51.0563 358.834C48.4949 360.834 46.677 363.634 45.8925 366.788L43.6918 375.589H37.403C36.17 375.589 34.9874 376.079 34.1156 376.951C33.2437 377.823 32.7538 379.005 32.7538 380.239C32.7538 381.472 33.2437 382.654 34.1156 383.526C34.9874 384.398 36.17 384.888 37.403 384.888H47.8286L56.9347 594.323C57.3904 604.796 65.959 613.001 76.4417 613.001H216.558C221.592 613.01 226.435 611.071 230.072 607.589C233.708 604.107 235.856 599.353 236.065 594.323L245.171 384.888H255.597C256.83 384.888 258.013 384.398 258.884 383.526C259.756 382.654 260.246 381.471 260.246 380.238C260.246 379.005 259.756 377.823 258.884 376.951C258.012 376.079 256.829 375.589 255.596 375.589ZM122.725 342.291C123.402 340.254 124.704 338.481 126.446 337.226C128.188 335.97 130.281 335.296 132.429 335.298H160.573C162.72 335.296 164.813 335.97 166.554 337.226C168.296 338.481 169.598 340.254 170.275 342.291L174.763 355.753H118.238L122.725 342.291ZM54.9128 369.043C55.1965 367.902 55.854 366.889 56.7805 366.166C57.707 365.442 58.849 365.05 60.0245 365.052H232.977C235.399 365.052 237.501 366.693 238.089 369.042L239.725 375.589H53.2755L54.9128 369.043ZM226.775 593.918C226.666 596.553 225.541 599.044 223.636 600.867C221.732 602.691 219.195 603.707 216.558 603.702H76.4417C73.8046 603.707 71.2678 602.691 69.363 600.867C67.4582 599.044 66.3333 596.553 66.2241 593.918L57.136 384.887H235.864L226.775 593.918Z" fill="#E0E0E0"/>
<path d="M146.499 588.204C147.732 588.204 148.915 587.714 149.787 586.842C150.659 585.97 151.149 584.787 151.149 583.554V405.035C151.149 403.802 150.659 402.619 149.787 401.747C148.915 400.875 147.732 400.386 146.499 400.386C145.266 400.386 144.084 400.875 143.212 401.747C142.34 402.619 141.85 403.802 141.85 405.035V583.554C141.85 584.787 142.34 585.97 143.212 586.842C144.084 587.714 145.266 588.203 146.499 588.204ZM191.001 588.204L191.132 588.205C192.343 588.205 193.505 587.732 194.372 586.888C195.24 586.044 195.744 584.895 195.777 583.685L199.909 434.916C199.922 433.697 199.455 432.522 198.609 431.644C197.764 430.766 196.607 430.255 195.389 430.222C194.171 430.188 192.988 430.634 192.095 431.464C191.202 432.293 190.67 433.44 190.615 434.658L186.482 583.427C186.448 584.66 186.905 585.855 187.753 586.751C188.6 587.647 189.769 588.169 191.001 588.204ZM195.685 419.597L195.816 419.598C197.026 419.598 198.188 419.125 199.056 418.281C199.923 417.437 200.427 416.288 200.46 415.078L200.736 405.162C200.753 404.551 200.649 403.944 200.431 403.373C200.213 402.803 199.885 402.281 199.466 401.838C199.046 401.394 198.544 401.038 197.986 400.789C197.429 400.54 196.828 400.403 196.218 400.386C193.669 400.314 191.513 402.337 191.442 404.904L191.167 414.82C191.15 415.431 191.253 416.038 191.471 416.609C191.689 417.179 192.017 417.701 192.436 418.144C192.856 418.588 193.359 418.944 193.916 419.194C194.473 419.443 195.074 419.58 195.685 419.597ZM101.465 568.988C100.855 569.005 100.254 569.142 99.6965 569.391C99.1392 569.64 98.6363 569.997 98.2168 570.44C97.7972 570.884 97.4692 571.405 97.2513 571.976C97.0334 572.546 96.9301 573.154 96.9471 573.764L97.2223 583.684C97.2392 584.295 97.3761 584.896 97.6253 585.453C97.8744 586.01 98.2309 586.513 98.6743 586.933C99.1178 587.352 99.6395 587.68 100.21 587.898C100.78 588.116 101.388 588.22 101.998 588.203C102.608 588.186 103.209 588.049 103.766 587.8C104.324 587.551 104.827 587.194 105.246 586.751C105.666 586.307 105.994 585.786 106.212 585.215C106.43 584.645 106.533 584.037 106.516 583.427L106.241 573.507C106.225 572.896 106.089 572.295 105.84 571.737C105.591 571.179 105.235 570.676 104.791 570.256C104.348 569.836 103.825 569.508 103.255 569.29C102.684 569.073 102.076 568.97 101.465 568.988ZM101.041 558.448C101.662 558.448 102.278 558.324 102.85 558.082C103.423 557.841 103.941 557.487 104.375 557.041C104.808 556.596 105.148 556.068 105.374 555.489C105.6 554.91 105.707 554.292 105.69 553.671L101.557 404.904C101.486 402.337 99.33 400.322 96.7812 400.386C96.1709 400.402 95.5699 400.539 95.0126 400.789C94.4552 401.038 93.9524 401.394 93.5328 401.838C93.1133 402.281 92.7852 402.803 92.5674 403.373C92.3495 403.944 92.2461 404.551 92.2632 405.162L96.3961 553.928C96.4296 555.138 96.9336 556.287 97.801 557.131C98.6683 557.975 99.8306 558.448 101.041 558.448Z" fill="#E0E0E0"/>
</g>
</g>
<defs>
<clipPath id="clip0_32_89">
<rect width="1577" height="470" fill="white"/>
</clipPath>
<clipPath id="clip1_32_89">
<rect width="112" height="112" fill="white" transform="translate(400 75)"/>
</clipPath>
<clipPath id="clip2_32_89">
<rect width="112" height="112" fill="white" transform="translate(944 75)"/>
</clipPath>
<clipPath id="clip3_32_89">
<rect width="287" height="287" fill="white" transform="translate(3 326)"/>
</clipPath>
</defs>
</svg>
