<svg width="64" height="64" viewBox="0 0 64 64" fill="none" xmlns="http://www.w3.org/2000/svg">
<path d="M38.2108 29.946L34.4426 33.7144L5.4565 62.699L1.2375 58.4815L30.2236 29.4954L33.9918 25.7272L37.2103 26.7275L38.2108 29.946Z" fill="white"/>
<path d="M38.2108 29.946L34.4426 33.7144L33.4421 30.4958L30.2236 29.4954L33.9918 25.7272L37.2103 26.7275L38.2108 29.946Z" fill="white"/>
<path d="M54.9824 18.386L61.5379 27.17C62.084 27.9018 61.554 28.9421 60.6409 28.9305L49.681 28.7905C49.5024 28.7882 49.326 28.8294 49.1668 28.9105C49.0077 28.9916 48.8707 29.1102 48.7675 29.256L42.4392 38.2045C41.9119 38.95 40.7587 38.7674 40.4877 37.8954L38.0632 30.0939L37.2346 27.4285C37.1815 27.2579 37.0879 27.1028 36.9616 26.9765C36.8352 26.8502 36.6801 26.7565 36.5096 26.7035L33.8441 25.875L26.0426 23.4505C25.1706 23.1795 24.988 22.0263 25.7335 21.499L34.6819 15.1707C34.8278 15.0675 34.9463 14.9305 35.0274 14.7713C35.1085 14.6122 35.1497 14.4357 35.1474 14.2572L35.0074 3.2973C34.9958 2.38418 36.0361 1.85418 36.7679 2.4003L45.5522 8.95579C45.6953 9.06264 45.8623 9.13306 46.0387 9.161C46.2152 9.18894 46.3958 9.17355 46.5649 9.11616L56.9449 5.59617C57.8096 5.30304 58.6353 6.12854 58.342 6.99329L54.822 17.3733C54.7646 17.5424 54.7492 17.723 54.7771 17.8995C54.805 18.0759 54.8755 18.2429 54.9824 18.386Z" fill="white"/>
</svg>
